<?xml version="1.0" standalone="no"?>
<!DOCTYPE svg PUBLIC "-//W3C//DTD SVG 20010904//EN"
 "http://www.w3.org/TR/2001/REC-SVG-20010904/DTD/svg10.dtd">
<svg version="1.0" xmlns="http://www.w3.org/2000/svg"
 width="665.000000pt" height="375.000000pt" viewBox="0 0 665.000000 375.000000"
 preserveAspectRatio="xMidYMid meet">

<g transform="translate(0.000000,375.000000) scale(0.100000,-0.100000)"
fill="#000000" stroke="none">
<path d="M5778 3579 c-3 -21 -10 -25 -58 -29 -50 -5 -52 -7 -25 -14 17 -4 62
-19 100 -32 101 -36 105 -37 105 -27 0 5 -27 35 -59 67 -55 55 -59 57 -63 35z"/>
<path d="M5567 3501 c-54 -35 -71 -59 -88 -122 -17 -62 2 -129 50 -183 52 -57
82 -66 223 -67 177 -1 262 -11 295 -35 41 -30 68 -115 55 -174 -6 -25 -9 -46
-7 -48 1 -2 12 12 24 31 44 72 16 171 -66 227 -33 22 -48 25 -207 31 -239 9
-288 26 -327 113 -44 98 -18 161 100 243 2 2 2 5 -1 8 -2 3 -25 -8 -51 -24z"/>
<path d="M4989 3055 c110 -40 157 -70 206 -133 65 -83 89 -147 90 -232 0 -95
-31 -164 -118 -256 -33 -36 -57 -67 -54 -70 10 -11 133 115 167 172 34 57 35
61 34 159 0 120 -22 178 -99 263 -54 60 -111 92 -206 116 -109 27 -120 17 -20
-19z"/>
<path d="M4763 3069 c-32 -9 -54 -29 -33 -29 26 0 100 23 100 31 0 11 -25 10
-67 -2z"/>
<path d="M4575 2978 c-11 -6 -31 -17 -44 -25 l-23 -15 25 -26 c27 -30 87 -117
87 -127 0 -4 17 -37 39 -73 62 -107 201 -388 207 -420 5 -24 1 -33 -21 -51
-15 -11 -23 -21 -17 -21 16 0 102 38 142 63 l35 22 -40 5 c-35 4 -44 12 -77
60 -48 71 -239 446 -271 530 -13 36 -22 71 -20 78 6 14 4 15 -22 0z"/>
<path d="M5752 2794 c28 -35 54 -64 57 -64 4 0 12 9 18 19 8 13 29 21 65 26
139 17 147 32 16 31 -81 -1 -101 3 -150 26 l-58 27 52 -65z"/>
<path d="M4020 2699 c-74 -40 -77 -45 -37 -53 23 -4 44 -18 60 -39 49 -65 238
-424 252 -480 5 -17 3 -27 -4 -27 -15 0 -130 47 -316 130 -238 106 -462 200
-474 200 -24 0 -9 -29 22 -43 65 -31 98 -81 228 -337 121 -240 135 -280 107
-308 -27 -27 5 -21 79 14 l78 37 -43 7 c-56 9 -78 32 -148 160 -64 118 -174
341 -174 353 0 15 67 -12 445 -178 232 -102 311 -132 321 -122 3 3 -5 16 -19
29 -43 38 -200 328 -284 523 -33 76 -36 105 -18 148 11 25 -11 21 -75 -14z"/>
<path d="M5563 2683 c-19 -7 -16 -62 3 -70 39 -15 71 40 38 64 -19 14 -22 14
-41 6z"/>
<path d="M3033 2198 c-34 -39 -34 -44 3 -40 27 3 47 -3 86 -27 28 -18 53 -30
55 -27 14 14 -83 116 -110 116 -8 0 -23 -10 -34 -22z"/>
<path d="M4608 2189 c-27 -15 -23 -57 7 -71 46 -21 75 31 37 65 -21 20 -21 20
-44 6z"/>
<path d="M2787 2060 c-96 -51 -121 -70 -96 -70 35 0 82 -75 235 -378 117 -230
130 -263 115 -291 -13 -24 -19 -25 104 27 70 30 306 141 314 148 8 7 -17 129
-33 164 l-15 35 5 -55 c7 -67 -4 -97 -50 -141 -39 -36 -220 -139 -247 -139 -9
0 -27 21 -42 48 -64 118 -127 246 -127 258 0 28 211 114 279 114 l35 0 -49 50
c-27 28 -52 50 -56 50 -3 0 -4 -11 -1 -25 6 -35 -16 -57 -105 -100 -78 -39
-113 -46 -138 -25 -15 13 -138 240 -149 276 -5 17 1 24 31 38 21 9 49 25 63
36 48 36 14 27 -73 -20z"/>
<path d="M2205 1757 c-70 -36 -76 -42 -53 -45 43 -5 88 -67 189 -260 156 -296
190 -389 153 -417 -34 -26 4 -16 69 17 49 25 57 33 40 36 -28 4 -76 79 -184
292 -181 357 -182 359 -143 395 37 35 22 31 -71 -18z"/>
<path d="M3610 1679 c-15 -26 -9 -59 12 -72 23 -15 48 8 48 42 0 48 -40 68
-60 30z"/>
<path d="M1635 1404 c102 -21 154 -50 189 -107 61 -99 43 -208 -44 -278 -22
-18 -40 -35 -40 -38 0 -3 16 -6 35 -7 39 -1 225 -89 273 -129 35 -29 52 -31
94 -9 l31 16 -58 20 c-32 11 -93 38 -134 60 -143 78 -147 83 -111 153 24 47
27 158 6 208 -19 46 -88 103 -141 116 -24 6 -72 10 -107 10 l-63 -1 70 -14z"/>
<path d="M1444 1366 c-39 -19 -89 -45 -110 -60 -32 -22 -35 -26 -17 -26 32 0
56 -38 180 -275 179 -341 191 -373 161 -403 -25 -25 15 -12 93 30 81 43 100
65 29 33 -35 -16 -43 -16 -55 -4 -15 16 -125 232 -125 247 0 5 21 19 48 30
l47 21 -54 1 c-48 0 -57 4 -85 34 -45 48 -177 313 -162 324 6 6 34 21 63 36
28 14 54 30 58 36 8 13 10 14 -71 -24z"/>
<path d="M2780 1256 c-6 -8 -10 -25 -8 -38 2 -19 9 -23 38 -23 29 0 36 4 38
23 4 28 -14 52 -38 52 -10 0 -23 -7 -30 -14z"/>
<path d="M856 1071 l-27 -28 43 -5 c24 -3 63 -17 86 -32 23 -14 44 -26 47 -26
8 0 -32 58 -63 93 -33 34 -51 34 -86 -2z"/>
<path d="M651 961 c-116 -61 -122 -67 -87 -82 40 -19 117 -150 277 -471 71
-142 76 -161 55 -193 -9 -14 -14 -25 -11 -25 9 0 165 80 165 84 0 3 -16 2 -35
-1 -26 -4 -41 -1 -56 13 -24 21 -139 247 -139 273 0 9 -11 26 -24 39 -28 26
-156 274 -156 302 0 18 18 36 89 86 54 37 25 28 -78 -25z"/>
<path d="M2246 974 c-3 -8 -1 -24 5 -35 20 -38 81 -5 66 35 -8 21 -63 22 -71
0z"/>
<path d="M1007 735 c3 -21 1 -41 -7 -50 -17 -20 3 -27 64 -23 l46 3 -46 53
c-25 28 -49 52 -54 52 -5 0 -6 -16 -3 -35z"/>
<path d="M1402 548 c-26 -26 -6 -68 33 -68 12 0 30 9 39 19 17 18 17 20 -3 40
-23 23 -51 27 -69 9z"/>
</g>
</svg>
